<svg xmlns="http://www.w3.org/2000/svg" width="75.628" height="57.938" viewBox="0 0 75.628 57.938"><defs><style>.a{fill:#fff;}</style></defs><g transform="translate(-652.266 -15.26)"><path class="a" d="M709.348,67.835h-8.243a.541.541,0,0,1-.541-.54V65.288a.542.542,0,0,0-.539-.541H688.491a.543.543,0,0,0-.542.541V67.3a.541.541,0,0,1-.541.54h-6.2a.543.543,0,0,0-.541.541V70.7a.543.543,0,0,0,.541.539h28.137a.542.542,0,0,0,.541-.539V68.376a.543.543,0,0,0-.541-.541" transform="translate(0.983 1.713)"/><path class="a" d="M723.867,15.26H665.044a3.713,3.713,0,0,0-3.71,3.712v9.68c0,1.281-.1,1.461.764,1.461h1.472c.718,0,.572-.18.572-1.485V18.972a.917.917,0,0,1,.9-.905h58.823a.917.917,0,0,1,.9.905V55.211H682.833s-1.479,0-1.479,1.909v4.533c0,1.908,1.527,1.908,1.527,1.908h40.986a3.718,3.718,0,0,0,3.713-3.711V18.972a3.716,3.716,0,0,0-3.713-3.712m-29.411,45.1a1.672,1.672,0,1,1,1.673-1.673,1.673,1.673,0,0,1-1.673,1.673" transform="translate(0.314)"/><path class="a" d="M675.941,32.822H654.662a2.4,2.4,0,0,0-2.4,2.4V70.194a2.4,2.4,0,0,0,2.4,2.4h21.279a2.4,2.4,0,0,0,2.4-2.4V35.219a2.4,2.4,0,0,0-2.4-2.4m-13.265,2.445h5.251a.454.454,0,1,1,0,.907h-5.251a.454.454,0,0,1,0-.907m2.595,35.64a1.241,1.241,0,1,1,1.238-1.241,1.24,1.24,0,0,1-1.238,1.241m11.008-3.644a.577.577,0,0,1-.568.581H654.894a.576.576,0,0,1-.567-.581V38.2a.576.576,0,0,1,.567-.581h20.817a.577.577,0,0,1,.568.581Z" transform="translate(0 0.608)"/></g></svg>