<svg xmlns="http://www.w3.org/2000/svg" width="75.256" height="75.256" viewBox="0 0 75.256 75.256"><defs><style>.a{fill:#fff;}</style></defs><g transform="translate(-830.321 -263.46)"><path class="a" d="M894.554,274.482a37.623,37.623,0,1,1-26.606-11.022,37.384,37.384,0,0,1,26.606,11.022m-3.326,49.888a32.675,32.675,0,0,0,8.986-16.688c-.99,1.458-1.938,2-2.524-1.263-.6-5.322-5.491-1.924-8.562-3.813-3.235,2.181-10.5-4.237-9.269,3,1.907,3.264,10.289-4.369,6.112,2.537-2.666,4.824-9.751,15.5-8.828,21.037.117,8.067-8.24,1.684-11.119-.992-1.938-5.359-.661-14.725-5.725-17.349-5.5-.241-10.216-.738-12.346-6.886-1.285-4.4,1.364-10.943,6.074-11.952,6.9-4.334,9.363,5.076,15.829,5.25,2.009-2.1,7.484-2.771,7.937-5.125-4.245-.75,5.383-3.569-.406-5.174-3.194.376-5.255,3.314-3.555,5.8-6.191,1.443-6.389-8.958-12.339-5.678-.153,5.189-9.72,1.681-3.311.63,2.2-.962-3.591-3.751-.461-3.243,1.539-.083,6.713-1.9,5.311-3.116,2.883-1.787,5.3,4.284,8.125-.138,2.036-3.4-.855-4.029-3.408-2.3-1.437-1.611,2.543-5.092,6.051-6.594a6.972,6.972,0,0,1,3.142-.7c1.768,2.041,5.037,2.393,5.209-.247a33.01,33.01,0,0,0-33.85,3.292c1.518.693,2.379,1.559.916,2.666-1.135,3.385-5.742,7.929-9.79,7.285a32.544,32.544,0,0,0-4.076,11.8c3.389,1.122,4.17,3.339,3.443,4.083a11.147,11.147,0,0,0-3.337,5.976,32.93,32.93,0,0,0,55.769,17.9" transform="translate(0 0)"/></g></svg>