<svg xmlns="http://www.w3.org/2000/svg" width="63.219" height="79.036" viewBox="0 0 63.219 79.036"><defs><style>.a{fill:#fff;}</style></defs><g transform="translate(-606.418 -235.46)"><path class="a" d="M635.795,245.906h-4.125a1.641,1.641,0,0,0-1.64,1.64v3.506a12.23,12.23,0,0,0-1.967.813l-2.48-2.477a1.643,1.643,0,0,0-2.32,0l-2.917,2.916a1.64,1.64,0,0,0,0,2.322l2.48,2.477a12.338,12.338,0,0,0-.816,1.967H618.5a1.644,1.644,0,0,0-1.64,1.643v4.127a1.643,1.643,0,0,0,1.64,1.639h3.506a12.176,12.176,0,0,0,.816,1.967l-2.48,2.481a1.637,1.637,0,0,0,0,2.317l2.917,2.919a1.641,1.641,0,0,0,2.32,0l2.48-2.48a12.248,12.248,0,0,0,1.967.817V278a1.643,1.643,0,0,0,1.64,1.64h4.125a1.643,1.643,0,0,0,1.64-1.64v-3.5a12.3,12.3,0,0,0,1.967-.817l2.48,2.48a1.641,1.641,0,0,0,2.32,0l2.917-2.919a1.636,1.636,0,0,0,0-2.317l-2.48-2.481a12.176,12.176,0,0,0,.816-1.967h3.506a1.643,1.643,0,0,0,1.64-1.639v-4.127a1.644,1.644,0,0,0-1.64-1.643h-3.506a12.338,12.338,0,0,0-.816-1.967l2.48-2.477a1.641,1.641,0,0,0,0-2.322l-2.917-2.916a1.643,1.643,0,0,0-2.32,0l-2.48,2.477a12.282,12.282,0,0,0-1.967-.813v-3.506a1.641,1.641,0,0,0-1.64-1.64m3.193,8.385a1.159,1.159,0,0,0,1.43-.164l2.625-2.627L645,253.464l-2.624,2.626a1.155,1.155,0,0,0-.165,1.43,9.92,9.92,0,0,1,1.232,2.972,1.154,1.154,0,0,0,1.125.893h3.713v2.776h-3.713a1.154,1.154,0,0,0-1.125.893,9.935,9.935,0,0,1-1.232,2.975,1.155,1.155,0,0,0,.165,1.43L645,272.085l-1.962,1.963-2.625-2.625a1.154,1.154,0,0,0-1.43-.164,9.969,9.969,0,0,1-2.975,1.231,1.158,1.158,0,0,0-.893,1.125v3.713h-2.773v-3.713a1.157,1.157,0,0,0-.9-1.125,9.984,9.984,0,0,1-2.972-1.231,1.153,1.153,0,0,0-1.43.164l-2.627,2.625-1.96-1.963,2.624-2.625a1.159,1.159,0,0,0,.165-1.43,9.9,9.9,0,0,1-1.232-2.975,1.156,1.156,0,0,0-1.128-.893h-3.713v-2.776h3.713a1.157,1.157,0,0,0,1.128-.893,9.883,9.883,0,0,1,1.232-2.972,1.159,1.159,0,0,0-.165-1.43l-2.624-2.626,1.96-1.963,2.627,2.627a1.155,1.155,0,0,0,1.43.164,9.88,9.88,0,0,1,2.972-1.231,1.159,1.159,0,0,0,.9-1.128v-3.713h2.773v3.713a1.16,1.16,0,0,0,.893,1.128,9.9,9.9,0,0,1,2.975,1.231" transform="translate(4.297 4.297)"/><path class="a" d="M624.421,259.677a6.2,6.2,0,1,0,6.2-6.2,6.208,6.208,0,0,0-6.2,6.2m10.088,0a3.886,3.886,0,1,1-3.885-3.885,3.89,3.89,0,0,1,3.885,3.885" transform="translate(7.406 7.411)"/><path class="a" d="M611.417,257.048h-3.839a1.158,1.158,0,1,0,0,2.316h3.839a1.158,1.158,0,0,0,0-2.316" transform="translate(0 8.88)"/><path class="a" d="M651.848,257.048h-3.839a1.158,1.158,0,1,0,0,2.316h3.839a1.158,1.158,0,0,0,0-2.316" transform="translate(16.632 8.88)"/><path class="a" d="M615.792,270.713l-2.715,2.717a1.157,1.157,0,0,0,1.637,1.634l2.715-2.714a1.158,1.158,0,0,0-1.637-1.637" transform="translate(2.6 14.363)"/><path class="a" d="M643.3,246.475l2.715-2.717a1.157,1.157,0,1,0-1.637-1.634l-2.715,2.714a1.158,1.158,0,1,0,1.637,1.637" transform="translate(14.361 2.601)"/><path class="a" d="M629.152,241.613a1.156,1.156,0,0,0,1.156-1.156v-3.842a1.157,1.157,0,0,0-2.313,0v3.842a1.156,1.156,0,0,0,1.157,1.156" transform="translate(8.876 0)"/><path class="a" d="M643.3,270.713a1.158,1.158,0,0,0-1.637,1.637l2.715,2.714a1.157,1.157,0,0,0,1.637-1.634Z" transform="translate(14.361 14.363)"/><path class="a" d="M615.792,246.475a1.158,1.158,0,1,0,1.637-1.637l-2.715-2.714a1.157,1.157,0,1,0-1.637,1.634Z" transform="translate(2.6 2.601)"/><path class="a" d="M631.206,241.449a1.158,1.158,0,0,0-.279,2.3,20.846,20.846,0,0,1,18.232,18.317,1.161,1.161,0,0,0,1.15,1.025c.042,0,.089,0,.134-.007a1.163,1.163,0,0,0,1.018-1.286,23.282,23.282,0,0,0-20.254-20.347" transform="translate(9.663 2.46)"/><path class="a" d="M657.659,266.177a1.158,1.158,0,0,0-1.294,1,20.864,20.864,0,0,1-9.654,15.089,7.79,7.79,0,0,0-3.679,6.624v4.766H628.155V288.79a7.617,7.617,0,0,0-3.566-6.447,20.944,20.944,0,0,1,8.447-38.6,1.157,1.157,0,1,0-.285-2.3,23.256,23.256,0,0,0-9.381,42.867,5.286,5.286,0,0,1,2.471,4.478v5.037a3.017,3.017,0,0,0-2.027,2.841v1.65a3,3,0,0,0,.642,1.855,2.984,2.984,0,0,0-.642,1.852v1.648a3.016,3.016,0,0,0,3.012,3.012h3.638V309.3a2.741,2.741,0,0,0,2.738,2.738h4.783a2.741,2.741,0,0,0,2.738-2.738v-2.615h3.638a3.015,3.015,0,0,0,3.012-3.012v-1.648a2.984,2.984,0,0,0-.642-1.852,3,3,0,0,0,.642-1.855v-1.65a3.019,3.019,0,0,0-2.027-2.841v-4.933a5.49,5.49,0,0,1,2.6-4.663,23.161,23.161,0,0,0,10.719-16.76,1.157,1.157,0,0,0-1-1.294m-13.3,29.8h0a.705.705,0,0,1,.7.694v1.65a.706.706,0,0,1-.7.7H626.825a.706.706,0,0,1-.7-.7v-1.65a.705.705,0,0,1,.7-.694ZM638.407,309.3a.427.427,0,0,1-.422.422H633.2a.428.428,0,0,1-.423-.422v-2.618h5.629Zm6.65-5.627a.706.706,0,0,1-.7.7H626.825a.706.706,0,0,1-.7-.7v-1.648a.706.706,0,0,1,.7-.7h17.536a.706.706,0,0,1,.7.7Z" transform="translate(2.436 2.458)"/></g></svg>