<svg xmlns="http://www.w3.org/2000/svg" width="69.94" height="69.905" viewBox="0 0 69.94 69.905"><defs><style>.a{fill:#fff;}</style></defs><g transform="translate(-882.482 -103.26)"><path class="a" d="M904.2,152.694a1.366,1.366,0,1,0,1.366,1.366,1.366,1.366,0,0,0-1.366-1.366" transform="translate(5.054 12.275)"/><path class="a" d="M951.708,134.15a1.368,1.368,0,0,0-1.4.056l-14.69,9.555v-8.426a1.367,1.367,0,0,0-2.111-1.146l-14.691,9.556v-8.41a1.367,1.367,0,0,0-2.11-1.146l-13.992,9.09c-.081-.981-2.052-25.423-2.07-25.659a1.368,1.368,0,0,0-1.362-1.257h-11.34a1.367,1.367,0,0,0-1.361,1.257l-4.1,50.814a1.367,1.367,0,0,0,1.362,1.478h67.208a1.366,1.366,0,0,0,1.366-1.367v-33.2a1.361,1.361,0,0,0-.714-1.2m-52.956-6.039H888.48l.253-3.141H898.5Zm-10.493,2.733h10.714c.094,1.17,2.356,29.222,2.489,30.872H885.77Zm9.766-11.748.253,3.143h-9.324l.253-3.143Zm-12.694,48.084.221-2.733h16.129l.221,2.733Zm64.36,0H904.642l-1.676-20.8,13.121-8.525v8.412a1.368,1.368,0,0,0,2.111,1.146l14.693-9.556v8.425A1.364,1.364,0,0,0,935,147.423l14.693-9.556Z" transform="translate(0 3.254)"/><path class="a" d="M904.2,151.8h8.2a1.366,1.366,0,0,0,1.367-1.356v-5.464a1.37,1.37,0,0,0-1.367-1.377h-8.2a1.369,1.369,0,0,0-1.367,1.377v5.464A1.365,1.365,0,0,0,904.2,151.8m1.366-5.465h5.464v2.733h-5.464Z" transform="translate(5.054 10.018)"/><path class="a" d="M915.146,151.8h8.607a1.365,1.365,0,0,0,1.366-1.356v-5.464a1.368,1.368,0,0,0-1.366-1.377h-8.607a1.369,1.369,0,0,0-1.367,1.377v5.464a1.365,1.365,0,0,0,1.367,1.356m1.366-5.465h5.875v2.733h-5.875Z" transform="translate(7.771 10.018)"/><path class="a" d="M926.418,151.8h8.6a1.365,1.365,0,0,0,1.365-1.356v-5.464a1.368,1.368,0,0,0-1.365-1.377h-8.6a1.369,1.369,0,0,0-1.367,1.377v5.464a1.366,1.366,0,0,0,1.367,1.356m1.366-5.465h5.875v2.733h-5.875Z" transform="translate(10.57 10.018)"/><path class="a" d="M888.664,114.153a1.366,1.366,0,0,0,1.366-1.367,4.1,4.1,0,0,1,4.1-4.1h16.665a4.158,4.158,0,0,0,2.937-1.226,3.964,3.964,0,0,0,1.161-2.855,1.365,1.365,0,0,0-1.366-1.348h-.018a1.364,1.364,0,0,0-1.349,1.381,1.25,1.25,0,0,1-.371.9,1.4,1.4,0,0,1-.995.416H894.128a6.839,6.839,0,0,0-6.831,6.83,1.367,1.367,0,0,0,1.367,1.367" transform="translate(1.196 0)"/><path class="a" d="M912.166,110.317l-15.3.017a4.1,4.1,0,0,0-4.1,4.1,1.366,1.366,0,0,0,2.733,0,1.367,1.367,0,0,1,1.366-1.367l15.3-.017a4.069,4.069,0,0,0,4.1-4.032v-.03a1.366,1.366,0,1,0-2.731,0v.03a1.338,1.338,0,0,1-1.368,1.3" transform="translate(2.554 1.082)"/><path class="a" d="M939.452,152.694H908.58a1.366,1.366,0,1,0,0,2.731h30.872a1.366,1.366,0,0,0,0-2.731" transform="translate(6.141 12.275)"/><path class="a" d="M890.414,135.4h3.141a1.366,1.366,0,1,0,0-2.731h-3.141a1.366,1.366,0,1,0,0,2.731" transform="translate(1.63 7.301)"/><path class="a" d="M890.414,139.774h3.141a1.366,1.366,0,1,0,0-2.733h-3.141a1.366,1.366,0,0,0,0,2.733" transform="translate(1.63 8.388)"/><path class="a" d="M890.414,144.151h3.141a1.366,1.366,0,1,0,0-2.733h-3.141a1.366,1.366,0,0,0,0,2.733" transform="translate(1.63 9.475)"/><path class="a" d="M893.557,145.8h-3.141a1.366,1.366,0,0,0,0,2.733h3.141a1.366,1.366,0,0,0,0-2.733" transform="translate(1.631 10.562)"/></g></svg>